<svg width="154" height="48" fill="none" xmlns="http://www.w3.org/2000/svg"><g clip-path="url(#a)"><path d="M80.735 12.06a3.11 3.11 0 1 1-6.221 0c0-1.73 1.34-3.123 3.11-3.123 1.771.048 3.111 1.441 3.111 3.123ZM67.91 18.354v.77S66.426 17.2 63.268 17.2c-5.217 0-9.285 3.988-9.285 9.514 0 5.477 4.02 9.513 9.285 9.513 3.206 0 4.642-1.97 4.642-1.97v.817c0 .384.287.673.67.673h3.876V17.682H68.58a.686.686 0 0 0-.67.672Zm0 11.58c-.718 1.057-2.154 1.97-3.877 1.97-3.063 0-5.408-1.922-5.408-5.19 0-3.267 2.345-5.188 5.408-5.188 1.675 0 3.207.96 3.877 1.97v6.438Zm7.418-12.252h4.594v18.066h-4.594V17.682Zm68.627-.48c-3.159 0-4.642 1.921-4.642 1.921V8.985h-4.594v26.763h3.876c.383 0 .67-.337.67-.673v-.817s1.484 1.97 4.642 1.97c5.217 0 9.285-4.036 9.285-9.513 0-5.478-4.068-9.514-9.237-9.514Zm-.766 14.654c-1.77 0-3.158-.913-3.876-1.97v-6.439c.718-.96 2.249-1.97 3.876-1.97 3.063 0 5.408 1.922 5.408 5.19 0 3.267-2.345 5.189-5.408 5.189Zm-10.863-6.823v10.763h-4.595V25.562c0-2.98-.957-4.18-3.541-4.18-1.388 0-2.824.72-3.733 1.777v12.589h-4.594V17.682h3.637c.383 0 .67.336.67.672v.77c1.34-1.394 3.111-1.923 4.881-1.923 2.01 0 3.685.577 5.025 1.73 1.628 1.345 2.25 3.075 2.25 6.102Zm-27.614-7.832c-3.159 0-4.642 1.922-4.642 1.922V8.985h-4.594v26.763h3.876c.383 0 .67-.337.67-.673v-.817s1.484 1.97 4.642 1.97c5.217 0 9.284-4.036 9.284-9.513.048-5.478-4.02-9.514-9.236-9.514Zm-.766 14.655c-1.77 0-3.158-.913-3.876-1.97v-6.439c.718-.96 2.249-1.97 3.876-1.97 3.063 0 5.408 1.922 5.408 5.19 0 3.267-2.345 5.189-5.408 5.189ZM91.503 17.2c1.388 0 2.106.24 2.106.24v4.277s-3.828-1.298-6.221 1.441v12.637h-4.595V17.682h3.877c.383 0 .67.336.67.672v.77c.861-1.01 2.728-1.923 4.163-1.923ZM43.79 34.114c-.239-.576-.478-1.201-.717-1.73-.383-.864-.766-1.681-1.101-2.45l-.048-.048A502.387 502.387 0 0 0 31.347 8.168l-.144-.288c-.383-.72-.766-1.49-1.148-2.258-.48-.865-.958-1.778-1.723-2.643C26.8 1.057 24.599 0 22.254 0c-2.393 0-4.547 1.057-6.126 2.883-.718.865-1.244 1.778-1.723 2.643-.383.768-.766 1.537-1.148 2.258l-.144.288C9.428 15.28 5.839 22.582 2.536 29.79l-.047.096c-.335.769-.718 1.585-1.101 2.45a30.97 30.97 0 0 0-.718 1.73c-.622 1.778-.814 3.46-.574 5.19a10.202 10.202 0 0 0 6.221 7.975 9.793 9.793 0 0 0 3.877.769c.382 0 .861-.048 1.244-.096 1.58-.192 3.206-.72 4.786-1.634 1.962-1.105 3.828-2.69 5.934-4.997 2.106 2.307 4.02 3.892 5.934 4.997 1.58.913 3.207 1.442 4.786 1.634.383.048.861.096 1.244.096 1.34 0 2.68-.24 3.877-.769 3.35-1.345 5.695-4.42 6.221-7.976.383-1.681.192-3.363-.43-5.14Zm-21.583 2.499c-2.584-3.268-4.26-6.343-4.834-8.937-.239-1.105-.287-2.066-.143-2.931a4.672 4.672 0 0 1 .765-2.018c.91-1.298 2.441-2.114 4.212-2.114 1.77 0 3.35.768 4.211 2.114a4.67 4.67 0 0 1 .766 2.018c.144.865.096 1.874-.144 2.93-.574 2.547-2.249 5.622-4.833 8.938ZM41.3 38.87a7.135 7.135 0 0 1-4.355 5.621c-1.149.481-2.393.625-3.637.481-1.197-.144-2.393-.529-3.637-1.25-1.723-.96-3.446-2.45-5.456-4.66 3.158-3.892 5.073-7.447 5.79-10.619.336-1.489.384-2.834.24-4.084-.191-1.2-.622-2.306-1.292-3.267-1.484-2.162-3.972-3.411-6.748-3.411-2.776 0-5.264 1.297-6.748 3.411-.67.961-1.1 2.066-1.292 3.267a10.014 10.014 0 0 0 .24 4.084c.717 3.172 2.68 6.775 5.79 10.667-1.962 2.21-3.733 3.7-5.456 4.66-1.244.721-2.44 1.106-3.637 1.25a7.626 7.626 0 0 1-3.637-.48 7.135 7.135 0 0 1-4.355-5.622c-.144-1.201-.048-2.402.43-3.748.144-.48.383-.96.623-1.537a96.65 96.65 0 0 1 1.1-2.403l.048-.096c3.302-7.159 6.844-14.462 10.529-21.573l.143-.289c.383-.72.766-1.49 1.149-2.21.383-.769.814-1.49 1.34-2.114 1.005-1.153 2.345-1.778 3.829-1.778 1.483 0 2.823.625 3.828 1.778.527.625.957 1.345 1.34 2.114.383.72.766 1.49 1.149 2.21l.143.289a638.392 638.392 0 0 1 10.481 21.621v.048c.383.769.718 1.634 1.1 2.403.24.576.48 1.057.623 1.537.383 1.25.526 2.45.335 3.7Z" fill="#999"/></g><defs><clipPath id="a"><path fill="#fff" d="M0 0h153.191v48H0z"/></clipPath></defs></svg>