<svg width="160" height="48" fill="none" xmlns="http://www.w3.org/2000/svg"><g clip-path="url(#a)" fill-rule="evenodd" clip-rule="evenodd" fill="#999"><path d="M99.463 37.538C90.196 44.36 76.763 48 65.199 48c-16.215 0-30.813-5.99-41.858-15.954-.867-.783-.09-1.851.951-1.24 11.92 6.926 26.656 11.093 41.879 11.093 10.266 0 21.56-2.122 31.945-6.525 1.569-.665 2.881 1.026 1.347 2.163Z"/><path d="M103.315 33.135c-1.18-1.512-7.83-.714-10.815-.36-.91.11-1.048-.68-.229-1.249 5.297-3.723 13.987-2.648 15.001-1.4 1.013 1.255-.264 9.956-5.241 14.11-.764.637-1.492.297-1.152-.549 1.117-2.787 3.623-9.034 2.436-10.552ZM92.709 5.242v-3.62c0-.547.416-.915.916-.915h16.222c.521 0 .937.375.937.915v3.1c-.007.52-.444 1.2-1.221 2.274l-8.407 11.988c3.124-.077 6.421.388 9.254 1.983.638.36.812.887.86 1.407v3.862c0 .527-.583 1.144-1.194.825-4.991-2.614-11.62-2.898-17.138.028-.563.305-1.153-.305-1.153-.832v-3.668c0-.59.007-1.595.597-2.489l9.739-13.95h-8.475c-.521 0-.938-.368-.938-.908ZM33.532 27.824h-4.936c-.472-.035-.847-.389-.881-.84v-25.3c0-.505.423-.907.95-.907h4.603c.479.02.86.388.895.845V4.93h.09C35.456 1.733 37.712.243 40.752.243c3.089 0 5.019 1.49 6.407 4.687C48.352 1.733 51.066.243 53.975.243c2.068 0 4.331.853 5.712 2.766 1.562 2.129 1.243 5.221 1.243 7.932l-.007 15.968c0 .506-.423.915-.95.915h-4.93c-.492-.035-.888-.43-.888-.915v-13.41c0-1.067.097-3.73-.139-4.742-.368-1.699-1.471-2.177-2.901-2.177-1.194 0-2.444.797-2.95 2.073-.507 1.276-.459 3.411-.459 4.846v13.41c0 .506-.423.915-.95.915h-4.93c-.499-.035-.888-.43-.888-.915l-.007-13.41c0-2.822.466-6.975-3.04-6.975-3.547 0-3.408 4.05-3.408 6.975v13.41c0 .506-.424.915-.951.915M124.751.243c7.323 0 11.287 6.281 11.287 14.269 0 7.716-4.38 13.839-11.287 13.839-7.192 0-11.107-6.282-11.107-14.11 0-7.876 3.964-13.998 11.107-13.998Zm.041 5.165c-3.637 0-3.866 4.95-3.866 8.036 0 3.092-.049 9.693 3.825 9.693 3.825 0 4.005-5.325 4.005-8.57 0-2.135-.09-4.687-.736-6.711-.555-1.761-1.659-2.448-3.228-2.448Zm20.742 22.416h-4.915c-.493-.035-.888-.43-.888-.915l-.007-25.307c.041-.465.451-.825.951-.825h4.574c.431.02.785.312.882.707v3.869h.09c1.381-3.46 3.318-5.11 6.726-5.11 2.215 0 4.374.797 5.762 2.981C160 5.25 160 8.653 160 11.1v15.926c-.056.444-.465.798-.951.798H154.1c-.452-.035-.826-.368-.875-.798V13.284c0-2.766.319-6.815-3.089-6.815-1.201 0-2.305.804-2.853 2.024-.694 1.547-.784 3.086-.784 4.791V26.91c-.007.506-.438.915-.965.915M79.776 15.739c0 1.92.049 3.522-.923 5.228-.784 1.386-2.034 2.24-3.415 2.24-1.895 0-3.006-1.443-3.006-3.572 0-4.201 3.77-4.964 7.344-4.964v1.068Zm4.978 12.015c-.327.292-.799.313-1.167.118-1.638-1.359-1.936-1.99-2.832-3.286-2.707 2.76-4.63 3.585-8.135 3.585-4.158 0-7.386-2.559-7.386-7.683 0-4 2.166-6.725 5.262-8.056 2.679-1.18 6.42-1.387 9.28-1.713v-.638c0-1.172.09-2.558-.603-3.57-.597-.909-1.75-1.283-2.77-1.283-1.881 0-3.554.964-3.964 2.96-.083.444-.41.88-.86.902l-4.783-.513c-.403-.09-.854-.416-.736-1.033C67.157 1.747 72.404 0 77.097 0c2.402 0 5.54.638 7.434 2.454 2.402 2.24 2.173 5.228 2.173 8.48v7.682c0 2.31.958 3.321 1.86 4.57.313.443.382.977-.02 1.31a208.956 208.956 0 0 0-3.784 3.272l-.007-.014M15.074 15.739c0 1.92.049 3.522-.923 5.228-.784 1.386-2.027 2.24-3.415 2.24-1.895 0-3-1.443-3-3.572 0-4.201 3.77-4.964 7.338-4.964v1.068Zm4.977 12.015c-.326.292-.798.313-1.166.118-1.638-1.359-1.93-1.99-2.832-3.286-2.707 2.76-4.623 3.585-8.136 3.585-4.15 0-7.385-2.559-7.385-7.683 0-4 2.172-6.725 5.261-8.056 2.68-1.18 6.421-1.387 9.281-1.713v-.638c0-1.172.09-2.558-.597-3.57-.604-.909-1.756-1.283-2.77-1.283-1.88 0-3.56.964-3.97 2.96-.083.444-.41.88-.854.902l-4.79-.513c-.402-.09-.846-.416-.735-1.033C2.46 1.747 7.702 0 12.395 0c2.402 0 5.539.638 7.434 2.454 2.402 2.24 2.173 5.228 2.173 8.48v7.682c0 2.31.958 3.321 1.86 4.57.32.443.389.977-.014 1.31a209.293 209.293 0 0 0-3.783 3.272l-.014-.014"/></g><defs><clipPath id="a"><path fill="#fff" transform="translate(.532)" d="M0 0h159.468v48H0z"/></clipPath></defs></svg>