<svg width="18" height="18" fill="none" xmlns="http://www.w3.org/2000/svg"><path fill-rule="evenodd" clip-rule="evenodd" d="M17.533 8.988a8.535 8.535 0 0 1-.671 3.317 8.593 8.593 0 0 1-3.09 3.749 8.634 8.634 0 0 1-1.45.785 8.575 8.575 0 0 1-6.644 0 8.635 8.635 0 0 1-1.45-.785 8.604 8.604 0 0 1-3.09-3.749 8.492 8.492 0 0 1-.499-5.032 8.472 8.472 0 0 1 1.285-3.05 8.603 8.603 0 0 1 2.304-2.3A8.45 8.45 0 0 1 7.28.64a8.6 8.6 0 0 1 5.04.496 8.564 8.564 0 0 1 3.754 3.087 8.444 8.444 0 0 1 1.285 3.05 8.55 8.55 0 0 1 .173 1.715ZM5.89 2.406a7.288 7.288 0 0 0-4.022 5.082c.192.002 3.23.04 6.728-.888A43.818 43.818 0 0 0 5.89 2.406ZM9.2 7.72C5.448 8.842 1.847 8.761 1.718 8.756c-.002.078-.006.154-.006.232a7.24 7.24 0 0 0 1.867 4.863c-.002-.004 1.992-3.537 5.925-4.807.095-.032.191-.06.287-.087A24.597 24.597 0 0 0 9.2 7.72Zm4.612-4.193A7.258 7.258 0 0 0 9 1.712c-.593 0-1.167.071-1.718.204.11.146 1.478 1.96 2.725 4.245 2.75-1.03 3.787-2.608 3.805-2.634Zm-3.524 6.635-.048.016c-4.3 1.497-5.704 4.513-5.72 4.546A7.279 7.279 0 0 0 9 16.265a7.26 7.26 0 0 0 2.845-.576c-.108-.636-.532-2.864-1.557-5.526Zm2.784 4.861a7.279 7.279 0 0 0 3.123-4.881c-.15-.049-2.19-.693-4.542-.317.956 2.623 1.345 4.76 1.419 5.198Zm-2.504-7.778a22.844 22.844 0 0 1 .641 1.432c2.504-.315 4.97.215 5.076.236a7.234 7.234 0 0 0-1.658-4.547c-.013.02-1.182 1.705-4.06 2.879Z" fill="#fff"/></svg>