<svg width="147" height="48" fill="none" xmlns="http://www.w3.org/2000/svg"><g clip-path="url(#a)" fill="#999"><path d="m142.268 29.335 4.058 2.705c-1.317 1.94-4.467 5.269-9.914 5.269-6.763 0-11.8-5.233-11.8-11.89 0-7.084 5.09-11.89 11.231-11.89 6.176 0 9.202 4.913 10.181 7.565l.534 1.353-15.912 6.585c1.21 2.385 3.097 3.596 5.766 3.596 2.67 0 4.521-1.317 5.856-3.293Zm-12.477-4.29 10.626-4.414c-.587-1.477-2.331-2.527-4.414-2.527-2.652 0-6.336 2.35-6.212 6.941Zm-12.85-23.636h5.126v34.814h-5.126V1.409Zm-8.081 13.046h4.948V35.6c0 8.775-5.179 12.388-11.302 12.388-5.767 0-9.237-3.88-10.537-7.03l4.539-1.887c.819 1.94 2.794 4.236 5.998 4.236 3.934 0 6.354-2.439 6.354-6.995v-1.709h-.178c-1.174 1.424-3.417 2.706-6.265 2.706-5.945 0-11.391-5.18-11.391-11.854 0-6.71 5.446-11.943 11.391-11.943 2.83 0 5.091 1.264 6.265 2.652h.178v-1.709Zm.356 11c0-4.2-2.794-7.262-6.354-7.262-3.595 0-6.621 3.061-6.621 7.262 0 4.147 3.026 7.155 6.621 7.155 3.56.018 6.354-3.008 6.354-7.155Zm-46.33-.089c0 6.852-5.34 11.89-11.889 11.89-6.55 0-11.89-5.056-11.89-11.89 0-6.888 5.34-11.907 11.89-11.907 6.55 0 11.89 5.019 11.89 11.907Zm-5.197 0c0-4.272-3.097-7.209-6.692-7.209s-6.692 2.937-6.692 7.209c0 4.236 3.097 7.208 6.692 7.208s6.692-2.972 6.692-7.208Zm31.166.054c0 6.852-5.34 11.889-11.89 11.889-6.55 0-11.89-5.037-11.89-11.89 0-6.888 5.34-11.89 11.89-11.89 6.55 0 11.89 4.984 11.89 11.89Zm-5.215 0c0-4.273-3.097-7.21-6.693-7.21-3.595 0-6.692 2.938-6.692 7.21 0 4.235 3.097 7.208 6.692 7.208 3.614 0 6.693-2.99 6.693-7.209Zm-64.075 6.674c-7.458 0-13.296-6.016-13.296-13.474S12.107 5.147 19.565 5.147c4.022 0 6.959 1.584 9.13 3.613l3.578-3.578C29.247 2.281 25.207.074 19.565.074 9.348.074.752 8.404.752 18.62s8.596 18.546 18.813 18.546c5.517 0 9.682-1.815 12.94-5.197 3.345-3.346 4.378-8.045 4.378-11.854 0-1.192-.143-2.42-.303-3.328H19.565v4.948h12.12c-.355 3.097-1.334 5.215-2.776 6.657-1.744 1.762-4.503 3.702-9.344 3.702Z"/></g><defs><clipPath id="a"><path fill="#fff" transform="translate(.539)" d="M0 0h146.286v48H0z"/></clipPath></defs></svg>