<svg width="43" height="42" fill="none" xmlns="http://www.w3.org/2000/svg"><path d="M5.865 31.125V21c0-4.028 1.675-7.891 4.657-10.74 2.982-2.847 7.026-4.447 11.243-4.447 4.216 0 8.26 1.6 11.242 4.448 2.982 2.848 4.657 6.711 4.657 10.739v10.125" stroke="#000" stroke-width="3" stroke-linecap="round" stroke-linejoin="round"/><path d="M37.664 32.813a3.3 3.3 0 0 1-1.035 2.386 3.62 3.62 0 0 1-2.498.989h-1.767a3.62 3.62 0 0 1-2.498-.989 3.3 3.3 0 0 1-1.035-2.386V27.75a3.3 3.3 0 0 1 1.035-2.387 3.62 3.62 0 0 1 2.498-.988h5.3v8.438Zm-31.799 0A3.3 3.3 0 0 0 6.9 35.199a3.62 3.62 0 0 0 2.498.989h1.767a3.62 3.62 0 0 0 2.498-.989 3.3 3.3 0 0 0 1.035-2.386V27.75a3.3 3.3 0 0 0-1.035-2.387 3.62 3.62 0 0 0-2.498-.988h-5.3v8.438Z" stroke="#000" stroke-width="3" stroke-linecap="round" stroke-linejoin="round"/></svg>