<svg width="40" height="24" fill="none" xmlns="http://www.w3.org/2000/svg"><path d="m2.737 15.955 5.287 5.287.01.01.011.01a9.347 9.347 0 0 0 11.896 1.1 9.347 9.347 0 0 0 11.896-1.1l5.287-5.286A9.346 9.346 0 0 0 25.228 1.659a9.35 9.35 0 0 0-10.57-.003 9.346 9.346 0 0 0-11.92 14.299ZM28.1 4.307a5.607 5.607 0 0 1 6.381 9.024l-5.286 5.287a5.617 5.617 0 0 1-6.384 1.097l3.74-3.74a9.276 9.276 0 0 0 2.643-5.286c.062-.438.094-.88.094-1.322a9.283 9.283 0 0 0-1.415-4.946c.075-.04.15-.078.227-.114ZM15.976 5.401a5.608 5.608 0 0 1 7.93 7.93l-3.965 3.966-3.965-3.965a5.614 5.614 0 0 1 0-7.93ZM5.38 5.381a5.616 5.616 0 0 1 6.633-.967 9.283 9.283 0 0 0-1.42 4.953c.001.442.032.884.094 1.322a9.275 9.275 0 0 0 2.644 5.287l3.717 3.716.021.021a5.617 5.617 0 0 1-6.381-1.094l-.011-.011-.01-.01-5.262-5.262-.026-.025a5.608 5.608 0 0 1 0-7.93Z" fill="#0077C0"/></svg>