<svg width="179" height="48" fill="none" xmlns="http://www.w3.org/2000/svg"><g clip-path="url(#a)"><path d="M25.14 44.906c-2.67.47-5.386.61-8.196.985l-8.57-25.125v26.203C5.703 47.25 3.268 47.625.74 48V0h7.12l9.74 27.235V0h7.54v44.906Zm14.75-27.328c2.904 0 7.353-.14 10.022-.14v7.5c-3.325 0-7.212 0-10.022.14v11.156c4.402-.28 8.805-.656 13.253-.797v7.219l-20.746 1.64V0h20.746v7.5H39.891v10.078ZM81.01 7.5h-7.774V42c-2.529 0-5.058 0-7.493.094V7.5h-7.774V0H81.01v7.5Zm12.176 9.563h10.256v7.5H93.185v17.015h-7.353V0h20.934v7.5H93.185v9.563Zm25.757 17.953c4.262.093 8.57.422 12.738.656v7.406c-6.696-.422-13.393-.843-20.231-.984V0h7.493v35.016Zm19.061 8.578c2.388.14 4.917.281 7.352.562V0h-7.352v43.594ZM178.184 0l-9.507 22.828L178.184 48c-2.81-.375-5.62-.89-8.43-1.36l-5.385-13.874-5.479 12.75c-2.717-.47-5.339-.61-8.055-.985l9.647-21.984L151.771 0h8.055l4.917 12.61L169.989 0h8.195Z" fill="#999"/></g><defs><clipPath id="a"><path fill="#fff" transform="translate(.74)" d="M0 0h177.444v48H0z"/></clipPath></defs></svg>