<svg width="189" height="48" fill="none" xmlns="http://www.w3.org/2000/svg"><g clip-path="url(#a)" fill="#999"><path d="m60.456 37.606 2.343-5.442c2.532 1.89 5.896 2.872 9.222 2.872 2.457 0 4.006-.945 4.006-2.38-.038-4.007-14.702-.87-14.816-10.924-.037-5.102 4.498-9.033 10.923-9.033 3.818 0 7.635.945 10.356 3.1l-2.192 5.555c-2.494-1.587-5.594-2.72-8.542-2.72-2.003 0-3.326.944-3.326 2.153.038 3.931 14.816 1.777 14.967 11.377 0 5.215-4.422 8.882-10.771 8.882-4.65 0-8.92-1.096-12.17-3.44Zm89.915-7.408c-1.172 2.041-3.364 3.44-5.897 3.44a6.759 6.759 0 0 1-6.765-6.766 6.759 6.759 0 0 1 6.765-6.765c2.533 0 4.725 1.399 5.897 3.44l6.463-3.591c-2.419-4.309-7.068-7.257-12.36-7.257-7.823 0-14.173 6.35-14.173 14.173 0 7.824 6.35 14.174 14.173 14.174 5.33 0 9.941-2.91 12.36-7.257l-6.463-3.59ZM86.648.945h8.088v39.572h-8.088V.944Zm73.36 0v39.572h8.089V28.648l9.6 11.867h10.355L175.845 26.42l11.3-13.153h-9.902l-9.146 10.923V.945h-8.089Zm-41.234 29.329c-1.172 1.928-3.591 3.364-6.312 3.364a6.758 6.758 0 0 1-6.765-6.766 6.758 6.758 0 0 1 6.765-6.765c2.721 0 5.14 1.512 6.312 3.477v6.69Zm0-17.008v3.213c-1.323-2.23-4.611-3.78-8.051-3.78-7.105 0-12.699 6.274-12.699 14.136 0 7.861 5.594 14.21 12.699 14.21 3.44 0 6.728-1.549 8.051-3.779v3.213h8.088V13.266h-8.088ZM10.452 30.236c0 2.76-2.23 4.99-4.989 4.99a4.984 4.984 0 0 1-4.989-4.99 4.984 4.984 0 0 1 4.99-4.989h4.988v4.99Zm2.495 0a4.984 4.984 0 0 1 4.989-4.989 4.985 4.985 0 0 1 4.989 4.99v12.472a4.984 4.984 0 0 1-4.99 4.989 4.984 4.984 0 0 1-4.988-4.99V30.237Zm4.989-20.031a4.984 4.984 0 0 1-4.99-4.99 4.984 4.984 0 0 1 4.99-4.988 4.984 4.984 0 0 1 4.989 4.989v4.989h-4.99Zm0 2.532a4.984 4.984 0 0 1 4.989 4.989 4.984 4.984 0 0 1-4.99 4.989H5.426a4.984 4.984 0 0 1-4.988-4.989c0-2.76 2.23-4.989 4.989-4.989h12.51Zm19.994 4.989c0-2.76 2.23-4.989 4.989-4.989a4.984 4.984 0 0 1 4.989 4.989 4.984 4.984 0 0 1-4.99 4.989H37.93v-4.989Zm-2.495 0a4.984 4.984 0 0 1-4.989 4.989 4.984 4.984 0 0 1-4.989-4.989V5.216a4.984 4.984 0 0 1 4.99-4.99 4.984 4.984 0 0 1 4.988 4.99v12.51ZM30.446 37.72c2.76 0 4.99 2.23 4.99 4.989a4.984 4.984 0 0 1-4.99 4.989 4.984 4.984 0 0 1-4.989-4.99V37.72h4.99Zm0-2.495a4.984 4.984 0 0 1-4.989-4.989 4.984 4.984 0 0 1 4.99-4.989h12.51a4.984 4.984 0 0 1 4.988 4.99 4.984 4.984 0 0 1-4.989 4.988h-12.51Z"/></g><defs><clipPath id="a"><path fill="#fff" transform="translate(.172)" d="M0 0h188.22v48H0z"/></clipPath></defs></svg>